<?xml version="1.0" standalone="no"?>
<!DOCTYPE svg PUBLIC "-//W3C//DTD SVG 20010904//EN"
 "http://www.w3.org/TR/2001/REC-SVG-20010904/DTD/svg10.dtd">
<svg version="1.0" xmlns="http://www.w3.org/2000/svg"
 width="700.000000pt" height="700.000000pt" viewBox="0 0 700.000000 700.000000"
 preserveAspectRatio="xMidYMid meet">
<metadata>
Created by potrace 1.11, written by Peter Selinger 2001-2013
</metadata>
<g transform="translate(0.000000,700.000000) scale(0.100000,-0.100000)"
fill="#000000" stroke="none">
<path d="M3329 6996 c-2 -2 -31 -7 -64 -11 -33 -3 -80 -11 -105 -16 -25 -6
-52 -12 -61 -14 -9 -2 -65 -19 -123 -39 -488 -163 -792 -504 -855 -956 -11
-79 -20 -283 -21 -487 l0 -122 -32 10 c-45 13 -132 2 -179 -21 -112 -58 -161
-242 -136 -520 11 -125 27 -187 75 -290 60 -130 188 -277 305 -350 l56 -35 -3
-85 c-3 -110 9 -204 39 -308 45 -155 128 -292 258 -427 l82 -85 1 -160 c0
-105 -4 -160 -10 -161 -6 0 -144 -2 -306 -4 -291 -3 -343 -7 -477 -41 -76 -19
-230 -80 -283 -112 -19 -12 -48 -29 -65 -38 -124 -70 -315 -257 -407 -400 -39
-61 -102 -191 -125 -259 -37 -108 -42 -129 -59 -225 -15 -83 -17 -187 -17
-825 0 -728 1 -730 22 -787 29 -75 102 -154 177 -193 l59 -30 2400 -3 c2621
-2 2452 -6 2545 53 55 35 117 110 141 174 21 55 22 63 23 756 1 824 -4 892
-83 1097 -43 110 -123 262 -151 288 -3 3 -17 21 -30 40 -66 96 -237 249 -365
326 -93 56 -291 137 -370 149 -11 2 -49 9 -85 16 -38 7 -184 13 -355 15 -159
2 -295 3 -301 3 -8 1 -11 50 -10 160 l1 160 32 33 c112 117 142 152 189 225
30 44 54 84 54 87 0 3 11 29 25 58 52 113 82 273 79 418 l-3 85 57 35 c135 84
273 258 331 416 39 106 42 131 46 329 3 153 1 178 -19 247 -26 89 -62 140
-116 168 -45 23 -135 33 -179 20 l-31 -9 0 107 c-1 242 -13 471 -30 559 -33
177 -119 365 -222 489 -203 246 -527 418 -906 480 -44 7 -406 16 -413 10z
m386 -244 c33 -6 74 -14 92 -17 61 -10 248 -76 324 -114 114 -57 187 -108 265
-186 170 -169 247 -355 261 -630 13 -240 7 -664 -12 -805 -2 -19 -7 -57 -10
-85 -4 -27 -17 -113 -31 -190 -32 -189 -35 -226 -33 -400 0 -82 2 -195 2 -250
3 -277 -48 -403 -247 -610 -111 -115 -208 -239 -318 -405 -172 -261 -175 -263
-530 -258 -271 3 -280 5 -352 75 -21 20 -85 108 -143 195 -131 197 -177 255
-323 406 -114 119 -178 223 -211 348 -22 82 -24 136 -20 519 2 155 -2 192 -43
442 -40 240 -51 382 -51 688 0 436 24 590 118 765 151 281 489 475 912 523 62
7 292 0 350 -11z m-1663 -1636 c35 -15 61 -39 64 -60 1 -6 5 -46 9 -89 3 -43
8 -88 10 -100 4 -22 12 -68 39 -232 19 -116 26 -205 16 -205 -16 0 -112 124
-142 184 -54 107 -63 154 -60 326 0 69 3 134 6 145 2 11 5 26 5 33 1 16 11 15
53 -2z m2954 -28 c11 -64 12 -236 2 -309 -12 -89 -81 -227 -152 -303 l-55 -59
4 59 c5 64 14 130 20 154 2 8 6 33 10 55 3 22 10 66 16 98 6 33 12 73 14 90
23 219 19 208 73 237 53 27 59 25 68 -22z m-2093 -2326 c85 -102 193 -168 302
-187 47 -8 527 -8 570 0 147 27 252 108 377 292 l36 52 6 -42 c12 -71 58 -132
129 -168 l37 -20 -26 -47 c-303 -530 -770 -919 -1425 -1188 -246 -101 -606
-204 -854 -244 -200 -33 -195 -33 -196 -13 0 10 -1 63 -1 118 0 61 -5 113 -13
132 -34 82 -153 91 -203 16 -16 -25 -17 -74 -19 -618 -1 -324 -2 -595 -2 -601
-1 -7 -80 -10 -249 -10 -219 1 -251 3 -275 19 -60 39 -58 8 -55 810 l3 732 27
97 c70 256 226 473 438 612 109 72 179 104 301 140 117 34 179 38 514 40 258
2 294 4 327 20 79 38 134 120 137 201 1 13 16 -2 47 -48 25 -38 55 -80 67 -95z
m2015 -81 c23 -1 21 -6 -37 -116 -195 -371 -466 -690 -842 -989 -206 -165
-575 -382 -826 -486 -42 -18 -84 -36 -92 -40 -63 -34 -486 -177 -618 -210 -24
-5 -62 -15 -85 -21 -24 -6 -54 -13 -68 -15 -13 -3 -60 -13 -105 -24 -44 -10
-97 -21 -119 -24 -21 -4 -41 -8 -45 -10 -3 -2 -31 -7 -61 -10 -30 -4 -67 -9
-82 -11 -16 -3 -39 -7 -53 -9 -14 -3 -25 -2 -26 2 0 4 -1 55 -2 114 -2 123
-16 109 123 128 203 28 504 99 741 176 496 161 918 395 1254 694 263 234 448
479 633 835 9 19 19 20 149 18 76 -1 149 -2 161 -2z m325 -60 c31 -11 92 -38
134 -60 264 -138 450 -376 534 -681 l23 -85 3 -735 c3 -793 5 -763 -50 -804
-27 -20 -41 -21 -278 -22 -137 0 -249 2 -250 5 0 3 -2 274 -2 601 -2 463 -5
600 -15 618 -41 72 -153 75 -199 6 -17 -26 -18 -65 -20 -624 -1 -327 -2 -598
-2 -601 -2 -11 -3261 -6 -3262 5 -3 31 0 228 3 232 3 2 24 6 49 9 446 56 1017
219 1425 405 233 107 409 204 609 335 523 344 915 776 1179 1303 32 61 58 112
60 112 2 0 28 -9 59 -19z"/>
<path d="M4615 1387 c-12 -7 -59 -49 -105 -94 -250 -242 -558 -444 -879 -579
-105 -44 -131 -71 -131 -137 0 -31 7 -46 34 -73 51 -51 81 -50 226 13 307 132
564 295 809 512 87 77 162 151 191 188 24 31 27 99 4 131 -32 46 -105 65 -149
39z"/>
</g>
</svg>
